HIERARCHY
ROOT Hips
{
	OFFSET -246.377396 91.733124 -540.268188
	CHANNELS 6 Xposition Yposition Zposition Zrotation Yrotation Xrotation 
	JOINT LeftUpLeg
	{
		OFFSET 0.103454 1.857841 10.548504
		CHANNELS 3 Zrotation Yrotation Xrotation
		JOINT LeftLeg
		{
			OFFSET 43.499992 -0.000061 0.000000
			CHANNELS 3 Zrotation Yrotation Xrotation
			JOINT LeftFoot
			{
				OFFSET 42.372196 0.000008 -0.000002
				CHANNELS 3 Zrotation Yrotation Xrotation
				JOINT LeftToe
				{
					OFFSET 17.300022 0.000011 0.000012
					CHANNELS 3 Zrotation Yrotation Xrotation
					End Site
					{
						OFFSET 0.000000 0.000000 0.000000
					}
				}
			}
		}
	}
	JOINT RightUpLeg
	{
		OFFSET 0.103458 1.857820 -10.548491
		CHANNELS 3 Zrotation Yrotation Xrotation
		JOINT RightLeg
		{
			OFFSET 43.500046 0.000015 0.000006
			CHANNELS 3 Zrotation Yrotation Xrotation
			JOINT RightFoot
			{
				OFFSET 42.372269 -0.000046 0.000017
				CHANNELS 3 Zrotation Yrotation Xrotation
				JOINT RightToe
				{
					OFFSET 17.300032 0.000011 0.000015
					CHANNELS 3 Zrotation Yrotation Xrotation
					End Site
					{
						OFFSET 0.000000 0.000000 0.000000
					}
				}
			}
		}
	}
	JOINT Spine
	{
		OFFSET 6.901962 -2.603707 -0.000004
		CHANNELS 3 Zrotation Yrotation Xrotation
		JOINT Spine1
		{
			OFFSET 12.588104 -0.000004 -0.000001
			CHANNELS 3 Zrotation Yrotation Xrotation
			JOINT Spine2
			{
				OFFSET 12.343199 -0.000026 0.000003
				CHANNELS 3 Zrotation Yrotation Xrotation
				JOINT Neck
				{
					OFFSET 25.832890 0.000004 -0.000006
					CHANNELS 3 Zrotation Yrotation Xrotation
					JOINT Head
					{
						OFFSET 11.766623 0.000031 0.000004
						CHANNELS 3 Zrotation Yrotation Xrotation
						End Site
						{
							OFFSET 0.000000 0.000000 0.000000
						}
					}
				}
				JOINT LeftShoulder
				{
					OFFSET 19.745897 -1.480345 6.000100
					CHANNELS 3 Zrotation Yrotation Xrotation
					JOINT LeftArm
					{
						OFFSET 11.284126 0.000003 -0.000015
						CHANNELS 3 Zrotation Yrotation Xrotation
						JOINT LeftForeArm
						{
							OFFSET 33.000057 -0.000023 0.000027
							CHANNELS 3 Zrotation Yrotation Xrotation
							JOINT LeftHand
							{
								OFFSET 25.199987 0.000051 0.000021
								CHANNELS 3 Zrotation Yrotation Xrotation
								End Site
								{
									OFFSET 0.000000 0.000000 0.000000
								}
							}
						}
					}
				}
				JOINT RightShoulder
				{
					OFFSET 19.746086 -1.480362 -6.000076
					CHANNELS 3 Zrotation Yrotation Xrotation
					JOINT RightArm
					{
						OFFSET 11.284140 0.000004 -0.000015
						CHANNELS 3 Zrotation Yrotation Xrotation
						JOINT RightForeArm
						{
							OFFSET 33.000084 -0.000023 0.000011
							CHANNELS 3 Zrotation Yrotation Xrotation
							JOINT RightHand
							{
								OFFSET 25.199789 0.000148 0.000422
								CHANNELS 3 Zrotation Yrotation Xrotation
								End Site
								{
									OFFSET 0.000000 0.000000 0.000000
								}
							}
						}
					}
				}
			}
		}
	}
}
MOTION
Frames: 14
Frame Time: 0.033333
173.225098 87.033920 -528.374512 67.645572 -10.096179 153.998595 124.670801 -8.568499 168.965766 -41.794091 -3.810579 -3.032810 73.291208 2.595894 1.129302 21.454548 0.003092 -0.000000 134.337472 12.570796 174.712633 -34.714662 -0.540945 13.481062 73.991255 -6.986339 8.923961 21.454557 -0.003120 -0.000021 17.993165 -0.435093 1.486619 25.959973 -1.191990 2.838042 25.642234 -1.174711 2.845200 -1.604882 -9.810696 -1.697217 -29.960212 9.566227 -8.530360 125.400101 -78.746214 53.784611 -38.033007 34.851115 -47.474449 -88.265128 -9.794403 2.914550 4.087292 -6.657347 75.671816 114.140275 77.638357 -65.242206 -45.594764 -26.194458 39.417158 -67.508627 20.329722 -2.797923 12.210567 -3.844359 -53.581427 
173.795197 87.132362 -528.610596 67.565843 -9.903029 154.253183 124.894298 -8.427001 168.239936 -41.921659 -3.643473 -2.601223 73.420217 2.443769 1.646905 21.454550 0.003090 -0.000000 135.044943 12.866898 174.962194 -34.036861 -0.686580 13.250857 73.644951 -6.847896 8.751299 21.454558 -0.003110 -0.000018 17.927295 -0.476380 1.551593 25.826555 -1.286414 2.958068 25.508844 -1.268408 2.965794 -1.721475 -9.681404 -1.794604 -29.901052 9.519849 -8.585907 125.584871 -78.906423 53.585378 -37.591749 35.310674 -48.133849 -88.772365 -9.310125 2.902913 4.251512 -7.107898 73.730820 113.985373 77.647168 -65.396930 -44.965526 -26.271194 40.019284 -67.773119 19.911680 -2.779279 9.331410 -3.072479 -44.159082 
174.274200 87.122528 -528.728027 67.817577 -9.629827 154.467228 125.247706 -8.247801 167.978421 -42.329390 -3.564216 -2.409557 73.610287 2.384408 1.913175 21.454551 0.003090 -0.000000 135.498386 13.193210 175.236044 -34.334268 -0.793636 12.895669 73.366702 -6.627483 8.564962 21.454557 -0.003116 -0.000019 17.867259 -0.531141 1.593142 25.704867 -1.402293 3.028877 25.387147 -1.383848 3.037300 -2.080833 -9.927634 -1.874554 -29.484397 9.787091 -8.835883 126.783693 -78.887414 52.379382 -36.827864 35.777286 -48.463413 -89.384917 -8.836704 2.896770 4.567181 -7.023083 73.602665 113.265000 77.835818 -66.103643 -44.477434 -26.583545 40.011941 -68.338761 19.589959 -2.780078 7.409888 -2.553619 -37.212233 
174.659393 87.040916 -528.719177 68.208987 -9.302765 154.747320 125.567564 -8.081301 168.113891 -42.957638 -3.606327 -2.353571 73.727295 2.374296 2.017154 21.454557 0.003095 0.000000 135.625851 13.448695 175.645322 -35.490284 -1.033566 12.411373 73.080709 -6.342189 8.265070 21.454557 -0.003109 -0.000019 17.779361 -0.581445 1.613984 25.527748 -1.504026 3.060349 25.210039 -1.485397 3.069383 -2.068875 -10.215235 -1.990755 -29.511362 10.116089 -9.181561 127.471711 -78.826114 51.691118 -35.891688 36.479514 -48.264056 -89.644648 -8.636993 2.894237 4.178175 -7.277809 74.245823 113.173974 77.967033 -66.183597 -44.152289 -26.773841 39.812958 -69.104979 19.306670 -2.792105 6.300814 -2.167694 -35.664089 
174.905502 86.922363 -528.584473 68.587961 -8.774072 155.199288 125.768330 -8.014496 168.484088 -43.720362 -3.587263 -2.247257 73.763775 2.303196 2.038137 21.454557 0.003093 0.000000 135.533370 13.283710 176.196286 -37.249642 -1.697309 12.094888 72.663022 -6.227521 7.751272 21.454558 -0.003109 -0.000017 17.689229 -0.590785 1.619681 25.347199 -1.521436 3.071026 25.029489 -1.502740 3.080164 -1.848554 -10.292450 -2.211220 -29.872293 10.036032 -9.410553 128.104610 -78.687700 51.064458 -34.884368 37.363730 -48.067327 -89.757442 -8.509402 2.893152 4.077780 -7.286091 74.924764 113.105515 78.019011 -66.247760 -43.991066 -26.853690 39.874883 -69.973813 18.972232 -2.804977 5.976801 -2.352873 -38.151996 
174.996094 86.759903 -528.346680 69.123010 -8.215674 155.522274 126.110577 -8.158204 168.736395 -44.460946 -3.583324 -2.065370 73.921812 2.168416 2.034269 21.454551 0.003092 0.000000 135.157791 12.695097 175.978513 -39.617501 -2.473827 12.064596 72.056809 -6.273077 7.360455 21.454557 -0.003107 -0.000019 17.645131 -0.636547 1.637588 25.257831 -1.614628 3.097189 24.940110 -1.595767 3.106890 -1.879115 -10.275382 -2.344333 -30.119973 9.938199 -9.529448 129.205131 -78.652620 49.957745 -34.114336 38.080282 -47.645467 -89.545221 -8.609679 2.892752 4.042973 -7.322654 74.902826 112.030600 77.959226 -67.331820 -43.911836 -26.884195 40.224261 -70.949854 18.733141 -2.829360 6.276196 -2.914332 -42.159421 
174.963699 86.623260 -528.078308 69.699383 -7.767176 155.925419 126.525006 -8.081407 169.137190 -44.872185 -3.516684 -1.991373 74.004232 2.068695 1.890247 21.454550 0.003092 -0.000000 134.267517 11.909196 174.760157 -42.675930 -2.987669 12.568091 70.829991 -6.774647 6.684879 21.454551 -0.003119 -0.000021 17.632072 -0.690576 1.679383 25.229983 -1.730129 3.168291 24.912270 -1.710843 3.178690 -2.523349 -10.212039 -2.452208 -29.813123 9.995179 -9.678689 129.734744 -78.718121 49.418526 -33.813261 38.747677 -47.287981 -89.212707 -8.838809 2.892578 4.323193 -7.372367 74.638907 110.528170 78.310352 -68.808009 -44.222876 -27.035072 41.249165 -71.974068 18.346339 -2.845530 7.006414 -3.657501 -45.538275 
174.761505 86.511658 -527.774719 70.022662 -7.582451 156.337593 126.670462 -7.933106 169.745596 -44.984852 -3.580684 -2.052469 73.990633 2.039454 1.645195 21.454551 0.003091 -0.000000 132.266272 10.989393 173.326541 -46.652231 -3.442489 12.845427 68.834455 -7.346697 5.277345 21.454558 -0.003112 -0.000019 17.560078 -0.748097 1.701188 25.084490 -1.846627 3.200299 24.766763 -1.827150 3.211398 -2.826291 -10.681670 -2.611662 -29.801734 10.198643 -10.072001 130.472377 -78.472378 48.693877 -33.054902 39.356831 -46.668555 -88.947170 -9.008839 2.892216 4.907377 -7.188141 74.746100 107.690677 78.554818 -71.630789 -44.361327 -27.083532 42.095795 -72.886383 17.921788 -2.854435 8.267098 -4.089461 -47.004682 
174.395798 86.359467 -527.443787 70.341468 -7.592146 156.714415 126.779417 -7.776504 170.084428 -44.935299 -3.607135 -2.035425 74.063696 1.964208 1.439978 21.454551 0.003092 -0.000000 129.632769 10.040799 171.830580 -51.173174 -3.582656 13.174229 66.307326 -7.888489 4.205138 21.454555 -0.003120 -0.000020 17.529739 -0.827188 1.693286 25.022477 -2.000420 3.168261 24.704717 -1.981131 3.180288 -3.026963 -10.997589 -2.504087 -29.957592 10.289233 -10.112011 130.752524 -78.200707 48.432619 -32.076713 39.839329 -46.125996 -88.882447 -8.971807 2.891193 5.860281 -7.074049 75.009978 104.679151 78.733599 -74.630800 -44.712228 -26.637466 42.985908 -73.624904 17.566321 -2.860927 9.466350 -4.464150 -47.427734 
173.857101 86.220284 -527.023376 70.814739 -7.329942 157.195916 127.049865 -7.850405 170.642277 -44.805857 -3.818696 -1.927628 73.893672 1.859117 1.323609 21.454553 0.003092 -0.000000 127.014089 9.166897 171.154049 -55.447233 -3.312482 12.397472 63.933583 -7.075551 4.746141 21.454568 -0.003106 -0.000013 17.644564 -0.848529 1.712597 25.251378 -2.049736 3.199444 24.933611 -2.030253 3.211766 -3.525102 -10.598979 -2.353000 -29.662801 9.974543 -9.722577 130.365171 -78.365397 48.810509 -32.092310 40.321817 -46.100280 -88.740099 -9.130897 2.888835 6.206667 -6.900510 75.596117 102.265458 78.951564 -77.026693 -45.348539 -25.471719 44.048310 -74.255727 17.327321 -2.871155 10.409526 -4.953832 -47.304647 
173.175201 86.093193 -526.520325 71.155251 -6.917190 157.882323 127.126896 -8.043504 171.053755 -44.656084 -3.834011 -1.589851 73.466252 1.608014 1.266482 21.454557 0.003093 0.000000 124.455595 8.590896 171.114352 -58.554645 -2.168116 8.749660 64.056082 -4.440605 4.713592 21.454555 -0.003117 -0.000021 17.788082 -0.760954 1.700949 25.540319 -1.877933 3.192622 25.222582 -1.858498 3.203912 -3.337793 -10.738370 -2.371406 -29.821689 10.040559 -9.806718 130.379159 -78.160491 48.812500 -31.858475 40.676792 -46.027658 -88.452343 -9.168465 2.878684 6.072486 -7.187756 75.827572 97.513914 78.959350 -81.775539 -45.923033 -23.988099 44.809839 -74.587872 17.244749 -2.879655 10.524988 -5.006895 -47.617893 
172.363007 85.910332 -525.979797 71.427639 -6.748815 158.606077 126.998120 -8.123601 171.297702 -44.469992 -3.779838 -1.235012 72.954801 1.325076 1.151188 21.454560 0.003094 0.000000 122.260933 8.132600 171.726843 -59.479002 -0.972011 3.462462 67.163620 -1.008151 3.889523 21.454558 -0.003111 -0.000017 17.911181 -0.692739 1.667930 25.788349 -1.739097 3.140109 25.470621 -1.719979 3.150560 -3.116234 -10.531250 -2.514580 -29.388057 10.023220 -9.827828 129.770862 -78.070510 49.433422 -31.638089 41.479688 -45.447508 -88.010382 -9.513012 2.883355 4.782090 -8.139237 74.708322 93.752126 79.118138 -85.516981 -46.594461 -22.205874 44.847664 -74.579245 17.347651 -2.886608 9.916502 -3.919428 -47.911246 
171.416901 85.590950 -525.378723 71.855209 -6.909569 159.342713 126.801574 -8.042602 171.748918 -44.371204 -4.042930 -1.051555 72.434409 1.137374 0.927788 21.454553 0.003093 -0.000000 121.132599 7.679095 173.055861 -57.276061 0.010356 -0.264358 69.774597 2.277513 5.878873 21.454562 -0.003110 -0.000017 18.010008 -0.671568 1.608762 25.987451 -1.686586 3.026180 25.669705 -1.668166 3.036317 -1.894510 -10.093100 -2.698694 -29.751802 10.052502 -9.874976 130.231627 -77.439285 49.018307 -30.630267 42.778089 -43.810544 -87.242211 -10.166742 2.895395 1.148517 -9.736844 72.602336 91.717303 79.138724 -87.544830 -46.805866 -20.388019 44.470935 -74.526264 17.432692 -2.890369 8.605327 -2.325692 -48.953926 
170.398499 85.224571 -524.745789 72.382021 -7.160806 160.101683 126.636106 -7.864896 172.022453 -44.256067 -4.168058 -0.834067 71.860550 0.898125 0.633856 21.454555 0.003094 -0.000000 121.778735 7.470001 174.750622 -51.182542 1.420347 -3.062762 70.033317 5.153861 8.438614 21.454558 -0.003108 -0.000018 18.089461 -0.675927 1.597491 26.146470 -1.694616 3.001536 25.828700 -1.676330 3.011723 -1.176407 -9.092110 -2.912262 -29.951281 9.781504 -9.724298 131.594810 -76.532481 47.712765 -28.987934 44.795386 -41.403302 -86.021492 -10.740100 2.881757 -3.028258 -11.382269 71.194190 90.699844 79.480138 -88.529442 -46.891984 -19.201234 44.759582 -74.932387 17.289885 -2.897816 6.878495 -0.964480 -49.996322 
